{
	"patcher" : 	{
		"fileversion" : 1,
		"rect" : [ 222.0, 92.0, 955.0, 692.0 ],
		"bglocked" : 0,
		"defrect" : [ 222.0, 92.0, 955.0, 692.0 ],
		"openrect" : [ 0.0, 0.0, 0.0, 0.0 ],
		"openinpresentation" : 0,
		"default_fontsize" : 12.0,
		"default_fontface" : 0,
		"default_fontname" : "Arial",
		"gridonopen" : 0,
		"gridsize" : [ 15.0, 15.0 ],
		"gridsnaponopen" : 0,
		"toolbarvisible" : 1,
		"boxanimatetime" : 200,
		"imprint" : 0,
		"metadata" : [  ],
		"boxes" : [ 			{
				"box" : 				{
					"maxclass" : "newobj",
					"text" : "print prg",
					"fontname" : "Arial",
					"numoutlets" : 0,
					"id" : "obj-37",
					"fontsize" : 12.0,
					"patching_rect" : [ 539.0, 558.0, 55.0, 20.0 ],
					"numinlets" : 1
				}

			}
, 			{
				"box" : 				{
					"maxclass" : "newobj",
					"text" : "print rd",
					"fontname" : "Arial",
					"numoutlets" : 0,
					"id" : "obj-32",
					"fontsize" : 12.0,
					"patching_rect" : [ 211.0, 64.0, 48.0, 20.0 ],
					"numinlets" : 1
				}

			}
, 			{
				"box" : 				{
					"maxclass" : "newobj",
					"text" : "r stop",
					"fontname" : "Arial",
					"numoutlets" : 1,
					"id" : "obj-43",
					"outlettype" : [ "" ],
					"fontsize" : 12.0,
					"patching_rect" : [ 412.0, 18.0, 41.0, 20.0 ],
					"numinlets" : 0
				}

			}
, 			{
				"box" : 				{
					"maxclass" : "newobj",
					"text" : "r play",
					"fontname" : "Arial",
					"numoutlets" : 1,
					"id" : "obj-42",
					"outlettype" : [ "" ],
					"fontsize" : 12.0,
					"patching_rect" : [ 356.0, 19.0, 40.0, 20.0 ],
					"numinlets" : 0
				}

			}
, 			{
				"box" : 				{
					"maxclass" : "newobj",
					"text" : "r read",
					"fontname" : "Arial",
					"numoutlets" : 1,
					"id" : "obj-41",
					"outlettype" : [ "" ],
					"fontsize" : 12.0,
					"patching_rect" : [ 298.0, 20.0, 42.0, 20.0 ],
					"numinlets" : 0
				}

			}
, 			{
				"box" : 				{
					"maxclass" : "message",
					"text" : "remote 1",
					"fontname" : "Arial",
					"numoutlets" : 1,
					"id" : "obj-40",
					"outlettype" : [ "" ],
					"fontsize" : 12.0,
					"patching_rect" : [ 181.0, 601.0, 58.0, 18.0 ],
					"numinlets" : 2
				}

			}
, 			{
				"box" : 				{
					"maxclass" : "newobj",
					"text" : "loadbang",
					"fontname" : "Arial",
					"numoutlets" : 1,
					"id" : "obj-29",
					"outlettype" : [ "bang" ],
					"fontsize" : 12.0,
					"patching_rect" : [ 181.0, 571.0, 60.0, 20.0 ],
					"numinlets" : 1
				}

			}
, 			{
				"box" : 				{
					"maxclass" : "button",
					"numoutlets" : 1,
					"id" : "obj-23",
					"outlettype" : [ "bang" ],
					"patching_rect" : [ 412.0, 225.0, 20.0, 20.0 ],
					"numinlets" : 1
				}

			}
, 			{
				"box" : 				{
					"maxclass" : "newobj",
					"text" : "prepend broadcast",
					"fontname" : "Arial",
					"numoutlets" : 1,
					"id" : "obj-21",
					"outlettype" : [ "" ],
					"fontsize" : 12.0,
					"patching_rect" : [ 256.0, 586.0, 111.0, 20.0 ],
					"numinlets" : 1
				}

			}
, 			{
				"box" : 				{
					"maxclass" : "comment",
					"text" : "midi message is 0 based\noffset to higher ",
					"linecount" : 3,
					"fontname" : "Arial",
					"numoutlets" : 0,
					"id" : "obj-26",
					"fontsize" : 12.0,
					"patching_rect" : [ 710.0, 370.0, 94.0, 48.0 ],
					"numinlets" : 1
				}

			}
, 			{
				"box" : 				{
					"maxclass" : "newobj",
					"text" : "+ 1",
					"fontname" : "Arial",
					"numoutlets" : 1,
					"id" : "obj-22",
					"outlettype" : [ "int" ],
					"fontsize" : 12.0,
					"patching_rect" : [ 706.0, 307.0, 32.5, 20.0 ],
					"numinlets" : 2
				}

			}
, 			{
				"box" : 				{
					"maxclass" : "comment",
					"text" : "map prg change to\n inst family",
					"linecount" : 3,
					"fontname" : "Arial",
					"numoutlets" : 0,
					"id" : "obj-39",
					"fontsize" : 12.0,
					"patching_rect" : [ 547.0, 369.0, 92.0, 48.0 ],
					"numinlets" : 1
				}

			}
, 			{
				"box" : 				{
					"maxclass" : "newobj",
					"text" : "js pgmEventProcessing.js",
					"fontname" : "Arial",
					"numoutlets" : 1,
					"id" : "obj-36",
					"outlettype" : [ "" ],
					"fontsize" : 12.0,
					"patching_rect" : [ 517.0, 513.0, 148.0, 20.0 ],
					"numinlets" : 1
				}

			}
, 			{
				"box" : 				{
					"maxclass" : "newobj",
					"text" : "prepend list",
					"fontname" : "Arial",
					"numoutlets" : 1,
					"id" : "obj-35",
					"outlettype" : [ "" ],
					"fontsize" : 12.0,
					"patching_rect" : [ 517.0, 471.0, 73.0, 20.0 ],
					"numinlets" : 1
				}

			}
, 			{
				"box" : 				{
					"maxclass" : "comment",
					"text" : "route to midi",
					"linecount" : 2,
					"fontname" : "Arial",
					"numoutlets" : 0,
					"id" : "obj-34",
					"fontsize" : 12.0,
					"patching_rect" : [ 716.0, 235.0, 60.0, 34.0 ],
					"numinlets" : 1
				}

			}
, 			{
				"box" : 				{
					"maxclass" : "newobj",
					"text" : "pack s 0",
					"fontname" : "Arial",
					"numoutlets" : 1,
					"id" : "obj-30",
					"outlettype" : [ "" ],
					"fontsize" : 12.0,
					"patching_rect" : [ 517.0, 438.0, 55.0, 20.0 ],
					"numinlets" : 2
				}

			}
, 			{
				"box" : 				{
					"maxclass" : "newobj",
					"text" : "coll pgmChangeInstMap.txt",
					"fontname" : "Arial",
					"numoutlets" : 4,
					"id" : "obj-28",
					"outlettype" : [ "", "", "", "" ],
					"fontsize" : 12.0,
					"patching_rect" : [ 517.0, 341.0, 156.0, 20.0 ],
					"numinlets" : 1,
					"save" : [ "#N", "coll", "pgmChangeInstMap.txt", ";" ],
					"saved_object_attributes" : 					{
						"embed" : 0
					}

				}

			}
, 			{
				"box" : 				{
					"maxclass" : "newobj",
					"text" : "unpack",
					"fontname" : "Arial",
					"numoutlets" : 2,
					"id" : "obj-24",
					"outlettype" : [ "int", "int" ],
					"fontsize" : 12.0,
					"patching_rect" : [ 584.0, 295.0, 49.0, 20.0 ],
					"numinlets" : 1
				}

			}
, 			{
				"box" : 				{
					"maxclass" : "newobj",
					"text" : "+ 1",
					"fontname" : "Arial",
					"numoutlets" : 1,
					"id" : "obj-17",
					"outlettype" : [ "int" ],
					"fontsize" : 12.0,
					"patching_rect" : [ 740.0, 310.0, 32.5, 20.0 ],
					"numinlets" : 2
				}

			}
, 			{
				"box" : 				{
					"maxclass" : "newobj",
					"text" : "pgmout",
					"fontname" : "Arial",
					"numoutlets" : 0,
					"id" : "obj-14",
					"fontsize" : 12.0,
					"patching_rect" : [ 709.0, 341.0, 51.0, 20.0 ],
					"numinlets" : 2
				}

			}
, 			{
				"box" : 				{
					"maxclass" : "newobj",
					"text" : "unpack",
					"fontname" : "Arial",
					"numoutlets" : 2,
					"id" : "obj-7",
					"outlettype" : [ "int", "int" ],
					"fontsize" : 12.0,
					"patching_rect" : [ 707.0, 274.0, 49.0, 20.0 ],
					"numinlets" : 1
				}

			}
, 			{
				"box" : 				{
					"maxclass" : "newobj",
					"text" : "route pgm",
					"fontname" : "Arial",
					"numoutlets" : 2,
					"id" : "obj-10",
					"outlettype" : [ "", "" ],
					"fontsize" : 12.0,
					"patching_rect" : [ 604.0, 236.0, 65.0, 20.0 ],
					"numinlets" : 1
				}

			}
, 			{
				"box" : 				{
					"maxclass" : "comment",
					"text" : "map drum note numbers to familiy",
					"linecount" : 3,
					"fontname" : "Arial",
					"numoutlets" : 0,
					"id" : "obj-33",
					"fontsize" : 12.0,
					"patching_rect" : [ 209.0, 378.0, 85.0, 48.0 ],
					"numinlets" : 1
				}

			}
, 			{
				"box" : 				{
					"maxclass" : "newobj",
					"text" : "prepend list",
					"fontname" : "Arial",
					"numoutlets" : 1,
					"id" : "obj-31",
					"outlettype" : [ "" ],
					"fontsize" : 12.0,
					"patching_rect" : [ 71.0, 480.0, 73.0, 20.0 ],
					"numinlets" : 1
				}

			}
, 			{
				"box" : 				{
					"maxclass" : "newobj",
					"text" : "pack s 0",
					"fontname" : "Arial",
					"numoutlets" : 1,
					"id" : "obj-27",
					"outlettype" : [ "" ],
					"fontsize" : 12.0,
					"patching_rect" : [ 71.0, 446.0, 55.0, 20.0 ],
					"numinlets" : 2
				}

			}
, 			{
				"box" : 				{
					"maxclass" : "comment",
					"text" : "don't need midi channel for percussion",
					"linecount" : 2,
					"fontname" : "Arial",
					"numoutlets" : 0,
					"id" : "obj-20",
					"fontsize" : 12.0,
					"patching_rect" : [ 162.0, 334.0, 150.0, 34.0 ],
					"numinlets" : 1
				}

			}
, 			{
				"box" : 				{
					"maxclass" : "newobj",
					"text" : "js beatEventProcessing.js",
					"fontname" : "Arial",
					"numoutlets" : 1,
					"id" : "obj-2",
					"outlettype" : [ "" ],
					"fontsize" : 12.0,
					"patching_rect" : [ 71.0, 513.0, 148.0, 20.0 ],
					"numinlets" : 1
				}

			}
, 			{
				"box" : 				{
					"maxclass" : "newobj",
					"text" : "coll GMDrumMap.txt",
					"fontname" : "Arial",
					"numoutlets" : 4,
					"id" : "obj-16",
					"outlettype" : [ "", "", "", "" ],
					"fontsize" : 12.0,
					"patching_rect" : [ 71.0, 389.0, 120.0, 20.0 ],
					"numinlets" : 1,
					"save" : [ "#N", "coll", "GMDrumMap.txt", ";" ],
					"saved_object_attributes" : 					{
						"embed" : 0
					}

				}

			}
, 			{
				"box" : 				{
					"maxclass" : "newobj",
					"text" : "unpack 0 0 0",
					"fontname" : "Arial",
					"numoutlets" : 3,
					"id" : "obj-13",
					"outlettype" : [ "int", "int", "int" ],
					"fontsize" : 12.0,
					"patching_rect" : [ 71.0, 342.0, 79.0, 20.0 ],
					"numinlets" : 1
				}

			}
, 			{
				"box" : 				{
					"maxclass" : "newobj",
					"text" : "abs.RetrieveRanges",
					"fontname" : "Arial",
					"numoutlets" : 1,
					"id" : "obj-1",
					"outlettype" : [ "" ],
					"fontsize" : 12.0,
					"patching_rect" : [ 455.0, 183.0, 119.0, 20.0 ],
					"numinlets" : 3
				}

			}
, 			{
				"box" : 				{
					"maxclass" : "message",
					"text" : "dump",
					"fontname" : "Arial",
					"numoutlets" : 1,
					"id" : "obj-25",
					"outlettype" : [ "" ],
					"fontsize" : 12.0,
					"patching_rect" : [ 457.0, 67.0, 41.0, 18.0 ],
					"numinlets" : 2
				}

			}
, 			{
				"box" : 				{
					"maxclass" : "comment",
					"text" : "channel ranges initialized at playback",
					"linecount" : 2,
					"fontname" : "Arial",
					"numoutlets" : 0,
					"id" : "obj-38",
					"fontsize" : 12.0,
					"patching_rect" : [ 138.0, 122.0, 123.0, 34.0 ],
					"numinlets" : 1
				}

			}
, 			{
				"box" : 				{
					"maxclass" : "newobj",
					"text" : "abs.TonalProcessing",
					"fontname" : "Arial",
					"numoutlets" : 1,
					"id" : "obj-4",
					"outlettype" : [ "" ],
					"fontsize" : 12.0,
					"patching_rect" : [ 352.0, 300.0, 121.0, 20.0 ],
					"numinlets" : 2
				}

			}
, 			{
				"box" : 				{
					"maxclass" : "newobj",
					"text" : "mxj MidiFileMusicViz",
					"fontname" : "Arial",
					"numoutlets" : 5,
					"id" : "obj-6",
					"outlettype" : [ "", "", "", "", "" ],
					"fontsize" : 12.0,
					"patching_rect" : [ 345.0, 115.0, 122.0, 20.0 ],
					"numinlets" : 1
				}

			}
, 			{
				"box" : 				{
					"maxclass" : "newobj",
					"text" : "abs.MIDIPlayback",
					"fontname" : "Arial",
					"numoutlets" : 0,
					"id" : "obj-9",
					"fontsize" : 12.0,
					"patching_rect" : [ 167.0, 186.0, 107.0, 20.0 ],
					"numinlets" : 1
				}

			}
, 			{
				"box" : 				{
					"maxclass" : "newobj",
					"text" : "p NoteOffMessageRemoval",
					"fontname" : "Arial",
					"numoutlets" : 1,
					"id" : "obj-11",
					"outlettype" : [ "" ],
					"fontsize" : 12.0,
					"patching_rect" : [ 71.0, 304.0, 158.0, 20.0 ],
					"numinlets" : 1,
					"patcher" : 					{
						"fileversion" : 1,
						"rect" : [ 89.0, 196.0, 640.0, 480.0 ],
						"bglocked" : 0,
						"defrect" : [ 89.0, 196.0, 640.0, 480.0 ],
						"openrect" : [ 0.0, 0.0, 0.0, 0.0 ],
						"openinpresentation" : 0,
						"default_fontsize" : 12.0,
						"default_fontface" : 0,
						"default_fontname" : "Arial",
						"gridonopen" : 0,
						"gridsize" : [ 15.0, 15.0 ],
						"gridsnaponopen" : 0,
						"toolbarvisible" : 1,
						"boxanimatetime" : 200,
						"imprint" : 0,
						"metadata" : [  ],
						"boxes" : [ 							{
								"box" : 								{
									"maxclass" : "comment",
									"text" : "strips out note off events by using velocity 0 as a gate to shut note offs from proceding through",
									"linecount" : 4,
									"fontname" : "Arial",
									"numoutlets" : 0,
									"id" : "obj-1",
									"fontsize" : 12.0,
									"patching_rect" : [ 260.0, 106.0, 154.0, 62.0 ],
									"numinlets" : 1
								}

							}
, 							{
								"box" : 								{
									"maxclass" : "newobj",
									"text" : "pack 0 0 0",
									"fontname" : "Arial",
									"numoutlets" : 1,
									"id" : "obj-23",
									"outlettype" : [ "" ],
									"fontsize" : 12.0,
									"patching_rect" : [ 125.0, 140.0, 66.0, 20.0 ],
									"numinlets" : 3
								}

							}
, 							{
								"box" : 								{
									"maxclass" : "newobj",
									"text" : "gate",
									"fontname" : "Arial",
									"numoutlets" : 1,
									"id" : "obj-22",
									"outlettype" : [ "" ],
									"fontsize" : 12.0,
									"patching_rect" : [ 80.0, 170.0, 34.0, 20.0 ],
									"numinlets" : 2
								}

							}
, 							{
								"box" : 								{
									"maxclass" : "newobj",
									"text" : "unpack 0 0 0",
									"fontname" : "Arial",
									"numoutlets" : 3,
									"id" : "obj-19",
									"outlettype" : [ "int", "int", "int" ],
									"fontsize" : 12.0,
									"patching_rect" : [ 50.0, 100.0, 79.0, 20.0 ],
									"numinlets" : 1
								}

							}
, 							{
								"box" : 								{
									"maxclass" : "inlet",
									"numoutlets" : 1,
									"id" : "obj-6",
									"outlettype" : [ "" ],
									"patching_rect" : [ 55.0, 40.0, 25.0, 25.0 ],
									"numinlets" : 0,
									"comment" : "test in message"
								}

							}
, 							{
								"box" : 								{
									"maxclass" : "outlet",
									"numoutlets" : 0,
									"id" : "obj-10",
									"patching_rect" : [ 85.0, 250.0, 25.0, 25.0 ],
									"numinlets" : 1,
									"comment" : ""
								}

							}
 ],
						"lines" : [ 							{
								"patchline" : 								{
									"source" : [ "obj-19", 1 ],
									"destination" : [ "obj-22", 0 ],
									"hidden" : 0,
									"midpoints" : [  ]
								}

							}
, 							{
								"patchline" : 								{
									"source" : [ "obj-23", 0 ],
									"destination" : [ "obj-22", 1 ],
									"hidden" : 0,
									"midpoints" : [  ]
								}

							}
, 							{
								"patchline" : 								{
									"source" : [ "obj-19", 2 ],
									"destination" : [ "obj-23", 2 ],
									"hidden" : 0,
									"midpoints" : [  ]
								}

							}
, 							{
								"patchline" : 								{
									"source" : [ "obj-19", 0 ],
									"destination" : [ "obj-23", 0 ],
									"hidden" : 0,
									"midpoints" : [  ]
								}

							}
, 							{
								"patchline" : 								{
									"source" : [ "obj-19", 1 ],
									"destination" : [ "obj-23", 1 ],
									"hidden" : 0,
									"midpoints" : [  ]
								}

							}
, 							{
								"patchline" : 								{
									"source" : [ "obj-6", 0 ],
									"destination" : [ "obj-19", 0 ],
									"hidden" : 0,
									"midpoints" : [  ]
								}

							}
, 							{
								"patchline" : 								{
									"source" : [ "obj-22", 0 ],
									"destination" : [ "obj-10", 0 ],
									"hidden" : 0,
									"midpoints" : [  ]
								}

							}
 ]
					}
,
					"saved_object_attributes" : 					{
						"fontname" : "Arial",
						"fontface" : 0,
						"default_fontface" : 0,
						"fontsize" : 12.0,
						"globalpatchername" : "",
						"default_fontname" : "Arial",
						"default_fontsize" : 12.0
					}

				}

			}
, 			{
				"box" : 				{
					"maxclass" : "newobj",
					"text" : "js channelRouter.js",
					"fontname" : "Arial",
					"numoutlets" : 2,
					"id" : "obj-15",
					"outlettype" : [ "", "" ],
					"fontsize" : 12.0,
					"patching_rect" : [ 130.0, 238.0, 112.0, 20.0 ],
					"numinlets" : 1
				}

			}
, 			{
				"box" : 				{
					"maxclass" : "comment",
					"text" : "audition",
					"fontname" : "Arial",
					"numoutlets" : 0,
					"id" : "obj-12",
					"fontsize" : 12.0,
					"patching_rect" : [ 105.0, 186.0, 58.0, 20.0 ],
					"numinlets" : 1
				}

			}
, 			{
				"box" : 				{
					"maxclass" : "newobj",
					"text" : "flashserver 31337 128",
					"fontname" : "Arial",
					"numoutlets" : 4,
					"id" : "obj-19",
					"outlettype" : [ "anything", "int", "int", "symbol" ],
					"fontsize" : 12.0,
					"patching_rect" : [ 257.0, 628.0, 129.0, 20.0 ],
					"numinlets" : 1
				}

			}
, 			{
				"box" : 				{
					"maxclass" : "message",
					"text" : "stop",
					"fontname" : "Arial",
					"numoutlets" : 1,
					"id" : "obj-18",
					"outlettype" : [ "" ],
					"fontsize" : 12.0,
					"patching_rect" : [ 401.0, 67.0, 33.0, 18.0 ],
					"numinlets" : 2
				}

			}
, 			{
				"box" : 				{
					"maxclass" : "newobj",
					"text" : "route note",
					"fontname" : "Arial",
					"numoutlets" : 2,
					"id" : "obj-8",
					"outlettype" : [ "", "" ],
					"fontsize" : 12.0,
					"patching_rect" : [ 273.0, 141.0, 65.0, 20.0 ],
					"numinlets" : 1
				}

			}
, 			{
				"box" : 				{
					"maxclass" : "message",
					"text" : "play 0",
					"fontname" : "Arial",
					"numoutlets" : 1,
					"id" : "obj-5",
					"outlettype" : [ "" ],
					"fontsize" : 12.0,
					"patching_rect" : [ 353.0, 68.0, 43.0, 18.0 ],
					"numinlets" : 2
				}

			}
, 			{
				"box" : 				{
					"maxclass" : "message",
					"text" : "read",
					"fontname" : "Arial",
					"numoutlets" : 1,
					"id" : "obj-3",
					"outlettype" : [ "" ],
					"fontsize" : 12.0,
					"patching_rect" : [ 263.0, 67.0, 35.0, 18.0 ],
					"numinlets" : 2
				}

			}
 ],
		"lines" : [ 			{
				"patchline" : 				{
					"source" : [ "obj-36", 0 ],
					"destination" : [ "obj-37", 0 ],
					"hidden" : 0,
					"midpoints" : [  ]
				}

			}
, 			{
				"patchline" : 				{
					"source" : [ "obj-43", 0 ],
					"destination" : [ "obj-18", 0 ],
					"hidden" : 0,
					"midpoints" : [  ]
				}

			}
, 			{
				"patchline" : 				{
					"source" : [ "obj-42", 0 ],
					"destination" : [ "obj-5", 0 ],
					"hidden" : 0,
					"midpoints" : [  ]
				}

			}
, 			{
				"patchline" : 				{
					"source" : [ "obj-29", 0 ],
					"destination" : [ "obj-40", 0 ],
					"hidden" : 0,
					"midpoints" : [  ]
				}

			}
, 			{
				"patchline" : 				{
					"source" : [ "obj-6", 4 ],
					"destination" : [ "obj-25", 0 ],
					"hidden" : 0,
					"midpoints" : [ 457.5, 144.0, 549.0, 144.0, 549.0, 96.0, 530.0, 96.0, 530.0, 37.0, 466.5, 37.0 ]
				}

			}
, 			{
				"patchline" : 				{
					"source" : [ "obj-1", 0 ],
					"destination" : [ "obj-23", 0 ],
					"hidden" : 0,
					"midpoints" : [  ]
				}

			}
, 			{
				"patchline" : 				{
					"source" : [ "obj-4", 0 ],
					"destination" : [ "obj-21", 0 ],
					"hidden" : 0,
					"midpoints" : [ 361.5, 573.0, 265.5, 573.0 ]
				}

			}
, 			{
				"patchline" : 				{
					"source" : [ "obj-2", 0 ],
					"destination" : [ "obj-21", 0 ],
					"hidden" : 0,
					"midpoints" : [ 80.5, 562.0, 265.5, 562.0 ]
				}

			}
, 			{
				"patchline" : 				{
					"source" : [ "obj-36", 0 ],
					"destination" : [ "obj-21", 0 ],
					"hidden" : 0,
					"midpoints" : [ 526.5, 578.0, 265.5, 578.0 ]
				}

			}
, 			{
				"patchline" : 				{
					"source" : [ "obj-6", 0 ],
					"destination" : [ "obj-10", 0 ],
					"hidden" : 0,
					"midpoints" : [ 354.5, 214.0, 613.5, 214.0 ]
				}

			}
, 			{
				"patchline" : 				{
					"source" : [ "obj-7", 0 ],
					"destination" : [ "obj-22", 0 ],
					"hidden" : 0,
					"midpoints" : [  ]
				}

			}
, 			{
				"patchline" : 				{
					"source" : [ "obj-22", 0 ],
					"destination" : [ "obj-14", 0 ],
					"hidden" : 0,
					"midpoints" : [  ]
				}

			}
, 			{
				"patchline" : 				{
					"source" : [ "obj-17", 0 ],
					"destination" : [ "obj-14", 1 ],
					"hidden" : 0,
					"midpoints" : [  ]
				}

			}
, 			{
				"patchline" : 				{
					"source" : [ "obj-7", 1 ],
					"destination" : [ "obj-17", 0 ],
					"hidden" : 0,
					"midpoints" : [  ]
				}

			}
, 			{
				"patchline" : 				{
					"source" : [ "obj-10", 0 ],
					"destination" : [ "obj-7", 0 ],
					"hidden" : 0,
					"midpoints" : [  ]
				}

			}
, 			{
				"patchline" : 				{
					"source" : [ "obj-10", 0 ],
					"destination" : [ "obj-24", 0 ],
					"hidden" : 0,
					"midpoints" : [  ]
				}

			}
, 			{
				"patchline" : 				{
					"source" : [ "obj-24", 0 ],
					"destination" : [ "obj-28", 0 ],
					"hidden" : 0,
					"midpoints" : [ 593.5, 326.0, 526.5, 326.0 ]
				}

			}
, 			{
				"patchline" : 				{
					"source" : [ "obj-28", 0 ],
					"destination" : [ "obj-30", 0 ],
					"hidden" : 0,
					"midpoints" : [  ]
				}

			}
, 			{
				"patchline" : 				{
					"source" : [ "obj-24", 1 ],
					"destination" : [ "obj-30", 1 ],
					"hidden" : 0,
					"midpoints" : [ 623.5, 328.0, 683.0, 328.0, 683.0, 421.0, 562.5, 421.0 ]
				}

			}
, 			{
				"patchline" : 				{
					"source" : [ "obj-30", 0 ],
					"destination" : [ "obj-35", 0 ],
					"hidden" : 0,
					"midpoints" : [  ]
				}

			}
, 			{
				"patchline" : 				{
					"source" : [ "obj-35", 0 ],
					"destination" : [ "obj-36", 0 ],
					"hidden" : 0,
					"midpoints" : [  ]
				}

			}
, 			{
				"patchline" : 				{
					"source" : [ "obj-11", 0 ],
					"destination" : [ "obj-13", 0 ],
					"hidden" : 0,
					"midpoints" : [  ]
				}

			}
, 			{
				"patchline" : 				{
					"source" : [ "obj-31", 0 ],
					"destination" : [ "obj-2", 0 ],
					"hidden" : 0,
					"midpoints" : [  ]
				}

			}
, 			{
				"patchline" : 				{
					"source" : [ "obj-27", 0 ],
					"destination" : [ "obj-31", 0 ],
					"hidden" : 0,
					"midpoints" : [  ]
				}

			}
, 			{
				"patchline" : 				{
					"source" : [ "obj-13", 1 ],
					"destination" : [ "obj-27", 1 ],
					"hidden" : 0,
					"midpoints" : [ 110.5, 374.0, 204.0, 374.0, 204.0, 431.0, 116.5, 431.0 ]
				}

			}
, 			{
				"patchline" : 				{
					"source" : [ "obj-16", 0 ],
					"destination" : [ "obj-27", 0 ],
					"hidden" : 0,
					"midpoints" : [  ]
				}

			}
, 			{
				"patchline" : 				{
					"source" : [ "obj-13", 0 ],
					"destination" : [ "obj-16", 0 ],
					"hidden" : 0,
					"midpoints" : [  ]
				}

			}
, 			{
				"patchline" : 				{
					"source" : [ "obj-25", 0 ],
					"destination" : [ "obj-6", 0 ],
					"hidden" : 0,
					"midpoints" : [  ]
				}

			}
, 			{
				"patchline" : 				{
					"source" : [ "obj-8", 0 ],
					"destination" : [ "obj-9", 0 ],
					"hidden" : 0,
					"midpoints" : [ 282.5, 171.0, 176.5, 171.0 ]
				}

			}
, 			{
				"patchline" : 				{
					"source" : [ "obj-5", 0 ],
					"destination" : [ "obj-6", 0 ],
					"hidden" : 0,
					"midpoints" : [  ]
				}

			}
, 			{
				"patchline" : 				{
					"source" : [ "obj-6", 0 ],
					"destination" : [ "obj-8", 0 ],
					"hidden" : 0,
					"midpoints" : [ 354.5, 135.0, 282.5, 135.0 ]
				}

			}
, 			{
				"patchline" : 				{
					"source" : [ "obj-18", 0 ],
					"destination" : [ "obj-6", 0 ],
					"hidden" : 0,
					"midpoints" : [  ]
				}

			}
, 			{
				"patchline" : 				{
					"source" : [ "obj-8", 0 ],
					"destination" : [ "obj-15", 0 ],
					"hidden" : 0,
					"midpoints" : [ 282.5, 229.0, 139.5, 229.0 ]
				}

			}
, 			{
				"patchline" : 				{
					"source" : [ "obj-25", 0 ],
					"destination" : [ "obj-1", 0 ],
					"hidden" : 0,
					"midpoints" : [  ]
				}

			}
, 			{
				"patchline" : 				{
					"source" : [ "obj-6", 1 ],
					"destination" : [ "obj-1", 1 ],
					"hidden" : 0,
					"midpoints" : [ 380.25, 168.0, 514.5, 168.0 ]
				}

			}
, 			{
				"patchline" : 				{
					"source" : [ "obj-6", 3 ],
					"destination" : [ "obj-1", 2 ],
					"hidden" : 0,
					"midpoints" : [ 431.75, 153.0, 564.5, 153.0 ]
				}

			}
, 			{
				"patchline" : 				{
					"source" : [ "obj-1", 0 ],
					"destination" : [ "obj-4", 1 ],
					"hidden" : 0,
					"midpoints" : [  ]
				}

			}
, 			{
				"patchline" : 				{
					"source" : [ "obj-15", 1 ],
					"destination" : [ "obj-4", 0 ],
					"hidden" : 0,
					"midpoints" : [ 232.5, 285.0, 361.5, 285.0 ]
				}

			}
, 			{
				"patchline" : 				{
					"source" : [ "obj-15", 0 ],
					"destination" : [ "obj-11", 0 ],
					"hidden" : 0,
					"midpoints" : [ 139.5, 291.0, 80.5, 291.0 ]
				}

			}
, 			{
				"patchline" : 				{
					"source" : [ "obj-3", 0 ],
					"destination" : [ "obj-6", 0 ],
					"hidden" : 0,
					"midpoints" : [  ]
				}

			}
, 			{
				"patchline" : 				{
					"source" : [ "obj-41", 0 ],
					"destination" : [ "obj-6", 0 ],
					"hidden" : 0,
					"midpoints" : [  ]
				}

			}
, 			{
				"patchline" : 				{
					"source" : [ "obj-21", 0 ],
					"destination" : [ "obj-19", 0 ],
					"hidden" : 0,
					"midpoints" : [  ]
				}

			}
, 			{
				"patchline" : 				{
					"source" : [ "obj-40", 0 ],
					"destination" : [ "obj-19", 0 ],
					"hidden" : 0,
					"midpoints" : [  ]
				}

			}
, 			{
				"patchline" : 				{
					"source" : [ "obj-41", 0 ],
					"destination" : [ "obj-32", 0 ],
					"hidden" : 0,
					"midpoints" : [  ]
				}

			}
 ]
	}

}
