{
	"patcher" : 	{
		"fileversion" : 1,
		"rect" : [ 330.0, 168.0, 600.0, 426.0 ],
		"bglocked" : 0,
		"defrect" : [ 330.0, 168.0, 600.0, 426.0 ],
		"openrect" : [ 0.0, 0.0, 0.0, 0.0 ],
		"openinpresentation" : 0,
		"default_fontsize" : 12.0,
		"default_fontface" : 0,
		"default_fontname" : "Arial",
		"gridonopen" : 0,
		"gridsize" : [ 15.0, 15.0 ],
		"gridsnaponopen" : 0,
		"toolbarvisible" : 1,
		"boxanimatetime" : 200,
		"imprint" : 0,
		"metadata" : [  ],
		"boxes" : [ 			{
				"box" : 				{
					"maxclass" : "message",
					"text" : "min",
					"id" : "obj-20",
					"numinlets" : 2,
					"fontsize" : 12.0,
					"numoutlets" : 1,
					"patching_rect" : [ 58.0, 209.0, 32.5, 18.0 ],
					"outlettype" : [ "" ],
					"fontname" : "Arial"
				}

			}
, 			{
				"box" : 				{
					"maxclass" : "message",
					"text" : "max",
					"id" : "obj-17",
					"numinlets" : 2,
					"fontsize" : 12.0,
					"numoutlets" : 1,
					"patching_rect" : [ 23.0, 167.0, 33.0, 18.0 ],
					"outlettype" : [ "" ],
					"fontname" : "Arial"
				}

			}
, 			{
				"box" : 				{
					"maxclass" : "message",
					"text" : "max 43, min 36",
					"id" : "obj-16",
					"numinlets" : 2,
					"fontsize" : 12.0,
					"numoutlets" : 1,
					"patching_rect" : [ 33.0, 24.0, 93.0, 18.0 ],
					"outlettype" : [ "" ],
					"fontname" : "Arial"
				}

			}
, 			{
				"box" : 				{
					"maxclass" : "comment",
					"text" : "myglobal.array2",
					"id" : "obj-1",
					"numinlets" : 1,
					"fontsize" : 9.0,
					"numoutlets" : 0,
					"patching_rect" : [ 231.0, 171.0, 113.0, 17.0 ],
					"fontname" : "Arial"
				}

			}
, 			{
				"box" : 				{
					"maxclass" : "comment",
					"text" : "myglobal.array1",
					"id" : "obj-2",
					"numinlets" : 1,
					"fontsize" : 9.0,
					"numoutlets" : 0,
					"patching_rect" : [ 203.0, 142.0, 113.0, 17.0 ],
					"fontname" : "Arial"
				}

			}
, 			{
				"box" : 				{
					"maxclass" : "comment",
					"text" : "recall the data elsewhere",
					"id" : "obj-3",
					"numinlets" : 1,
					"fontsize" : 9.0,
					"numoutlets" : 0,
					"patching_rect" : [ 67.0, 124.0, 113.0, 17.0 ],
					"fontname" : "Arial"
				}

			}
, 			{
				"box" : 				{
					"maxclass" : "message",
					"text" : "horses",
					"id" : "obj-4",
					"numinlets" : 2,
					"fontsize" : 9.0,
					"numoutlets" : 1,
					"patching_rect" : [ 164.0, 141.0, 38.0, 15.0 ],
					"outlettype" : [ "" ],
					"fontname" : "Arial"
				}

			}
, 			{
				"box" : 				{
					"maxclass" : "message",
					"text" : "0",
					"id" : "obj-5",
					"numinlets" : 2,
					"fontsize" : 9.0,
					"numoutlets" : 1,
					"patching_rect" : [ 183.0, 170.0, 16.0, 15.0 ],
					"outlettype" : [ "" ],
					"fontname" : "Arial"
				}

			}
, 			{
				"box" : 				{
					"maxclass" : "message",
					"text" : "2",
					"id" : "obj-6",
					"numinlets" : 2,
					"fontsize" : 9.0,
					"numoutlets" : 1,
					"patching_rect" : [ 216.0, 170.0, 16.0, 15.0 ],
					"outlettype" : [ "" ],
					"fontname" : "Arial"
				}

			}
, 			{
				"box" : 				{
					"maxclass" : "message",
					"text" : "mitterand",
					"id" : "obj-7",
					"numinlets" : 2,
					"fontsize" : 9.0,
					"numoutlets" : 1,
					"patching_rect" : [ 81.0, 141.0, 48.0, 15.0 ],
					"outlettype" : [ "" ],
					"fontname" : "Arial"
				}

			}
, 			{
				"box" : 				{
					"maxclass" : "message",
					"text" : "1",
					"id" : "obj-8",
					"numinlets" : 2,
					"fontsize" : 9.0,
					"numoutlets" : 1,
					"patching_rect" : [ 199.0, 170.0, 16.0, 15.0 ],
					"outlettype" : [ "" ],
					"fontname" : "Arial"
				}

			}
, 			{
				"box" : 				{
					"maxclass" : "newobj",
					"text" : "print",
					"id" : "obj-9",
					"numinlets" : 1,
					"fontsize" : 9.0,
					"numoutlets" : 0,
					"patching_rect" : [ 127.0, 269.0, 26.0, 17.0 ],
					"fontname" : "Arial"
				}

			}
, 			{
				"box" : 				{
					"maxclass" : "message",
					"text" : "junk",
					"id" : "obj-10",
					"numinlets" : 2,
					"fontsize" : 9.0,
					"numoutlets" : 1,
					"patching_rect" : [ 132.0, 141.0, 28.0, 15.0 ],
					"outlettype" : [ "" ],
					"fontname" : "Arial"
				}

			}
, 			{
				"box" : 				{
					"maxclass" : "newobj",
					"text" : "js makearrays2.js",
					"id" : "obj-11",
					"numinlets" : 1,
					"fontsize" : 9.0,
					"numoutlets" : 1,
					"patching_rect" : [ 128.0, 248.0, 83.0, 17.0 ],
					"outlettype" : [ "" ],
					"fontname" : "Arial"
				}

			}
, 			{
				"box" : 				{
					"maxclass" : "message",
					"text" : "junk 1 2 3 4 5, horses eat hay 3 times, mitterand 57 39",
					"id" : "obj-12",
					"numinlets" : 2,
					"fontsize" : 9.0,
					"numoutlets" : 1,
					"patching_rect" : [ 71.0, 61.0, 259.0, 15.0 ],
					"outlettype" : [ "" ],
					"fontname" : "Arial"
				}

			}
, 			{
				"box" : 				{
					"maxclass" : "newobj",
					"text" : "js makearrays1.js",
					"id" : "obj-13",
					"numinlets" : 1,
					"fontsize" : 9.0,
					"numoutlets" : 1,
					"patching_rect" : [ 71.0, 84.0, 94.0, 17.0 ],
					"outlettype" : [ "" ],
					"fontname" : "Arial"
				}

			}
, 			{
				"box" : 				{
					"maxclass" : "comment",
					"text" : "Make 2 arrays based on the same data",
					"id" : "obj-14",
					"numinlets" : 1,
					"fontsize" : 9.0,
					"numoutlets" : 0,
					"patching_rect" : [ 77.0, 44.0, 182.0, 17.0 ],
					"fontname" : "Arial"
				}

			}
 ],
		"lines" : [ 			{
				"patchline" : 				{
					"source" : [ "obj-17", 0 ],
					"destination" : [ "obj-11", 0 ],
					"hidden" : 0,
					"midpoints" : [  ]
				}

			}
, 			{
				"patchline" : 				{
					"source" : [ "obj-20", 0 ],
					"destination" : [ "obj-11", 0 ],
					"hidden" : 0,
					"midpoints" : [  ]
				}

			}
, 			{
				"patchline" : 				{
					"source" : [ "obj-16", 0 ],
					"destination" : [ "obj-13", 0 ],
					"hidden" : 0,
					"midpoints" : [  ]
				}

			}
, 			{
				"patchline" : 				{
					"source" : [ "obj-12", 0 ],
					"destination" : [ "obj-13", 0 ],
					"hidden" : 0,
					"midpoints" : [  ]
				}

			}
, 			{
				"patchline" : 				{
					"source" : [ "obj-11", 0 ],
					"destination" : [ "obj-9", 0 ],
					"hidden" : 0,
					"midpoints" : [  ]
				}

			}
, 			{
				"patchline" : 				{
					"source" : [ "obj-5", 0 ],
					"destination" : [ "obj-11", 0 ],
					"hidden" : 0,
					"midpoints" : [  ]
				}

			}
, 			{
				"patchline" : 				{
					"source" : [ "obj-4", 0 ],
					"destination" : [ "obj-11", 0 ],
					"hidden" : 0,
					"midpoints" : [  ]
				}

			}
, 			{
				"patchline" : 				{
					"source" : [ "obj-6", 0 ],
					"destination" : [ "obj-11", 0 ],
					"hidden" : 0,
					"midpoints" : [  ]
				}

			}
, 			{
				"patchline" : 				{
					"source" : [ "obj-7", 0 ],
					"destination" : [ "obj-11", 0 ],
					"hidden" : 0,
					"midpoints" : [  ]
				}

			}
, 			{
				"patchline" : 				{
					"source" : [ "obj-8", 0 ],
					"destination" : [ "obj-11", 0 ],
					"hidden" : 0,
					"midpoints" : [  ]
				}

			}
, 			{
				"patchline" : 				{
					"source" : [ "obj-10", 0 ],
					"destination" : [ "obj-11", 0 ],
					"hidden" : 0,
					"midpoints" : [  ]
				}

			}
 ]
	}

}
